<?xml version="1.0" encoding="UTF-8" standalone="no"?>
<svg
   role="img"
   viewBox="-3.29 29.96 14.840857 12.000001"
   version="1.1"
   id="svg4"
   sodipodi:docname="in-toto.svg"
   inkscape:version="1.1.1 (3bf5ae0d25, 2021-09-20, custom)"
   width="14.840857"
   height="12"
   xmlns:inkscape="http://www.inkscape.org/namespaces/inkscape"
   xmlns:sodipodi="http://sodipodi.sourceforge.net/DTD/sodipodi-0.dtd"
   xmlns="http://www.w3.org/2000/svg"
   xmlns:svg="http://www.w3.org/2000/svg">
  <defs
     id="defs8" />
  <sodipodi:namedview
     id="namedview6"
     pagecolor="#ffffff"
     bordercolor="#666666"
     borderopacity="1.0"
     inkscape:pageshadow="2"
     inkscape:pageopacity="0.0"
     inkscape:pagecheckerboard="0"
     showgrid="false"
     inkscape:zoom="9.6242015"
     inkscape:cx="25.404705"
     inkscape:cy="14.702518"
     inkscape:window-width="1916"
     inkscape:window-height="1060"
     inkscape:window-x="0"
     inkscape:window-y="18"
     inkscape:window-maximized="1"
     inkscape:current-layer="svg4"
     fit-margin-top="0"
     fit-margin-left="0"
     fit-margin-right="0"
     fit-margin-bottom="0" />
  <path
     d="m 11.405437,32.497306 c 0,0 -0.297326,-0.866189 -0.731522,-1.33095 -0.314258,-0.33638 -0.657577,-0.628783 -1.0630262,-0.830542 l 0.0043,-6.67e-4 c -0.01214,-0.0052 -0.02428,-0.01018 -0.03642,-0.01523 -0.03351,-0.01608 -0.06736,-0.0317 -0.101874,-0.04639 -1.131349,-0.481191 -2.232577,-0.411572 -3.28832,0.230139 a 2.8599687,2.8599687 0 0 0 -0.341432,0.248664 c -0.319852,0.266635 -1.839074,1.3446 -1.584916,1.874201 0.124121,0.258551 0.813788,0.893584 1.100126,0.892634 0.29289,-10e-4 1.473795,-1.091544 1.815452,-1.262144 0.698821,-0.34886 1.524004,-0.35334 2.005717,0.251119 0.498043,0.624951 0.418386,1.525341 -0.187393,2.031578 -0.827694,0.691756 -1.630056,1.415984 -2.49084,2.066138 -0.331225,0.250176 -0.659327,0.356276 -0.969076,0.353337 0.667567,-0.222733 0.616473,-1.513664 0.209407,-2.22336 -0.535035,-0.932826 -1.329962,-1.513103 -2.385504,-1.714666 -1.062228,-0.20284 -2.020517,0.04871 -2.858947,0.729792 -0.721415,0.585936 -1.474016,1.137567 -2.149673,1.775843 -0.426796,0.403129 -0.830473,0.83627 -1.103884,1.314123 -0.487606,0.85241 -0.703808,1.565703 -0.39223,2.58177 0,0 0.38128,0.93633 0.770326,1.330947 0.358218,0.36326 0.690998,0.694082 1.158245,0.892832 1.131344,0.481191 2.232588,0.411569 3.288316,-0.230139 a 2.8599974,2.8599974 0 0 0 0.341436,-0.248666 c 0.319852,-0.266636 1.839074,-1.344596 1.584911,-1.874199 -0.124123,-0.25855 -0.813788,-0.893586 -1.100126,-0.892637 -0.292885,0.001 -1.47379,1.091547 -1.815441,1.262147 -0.698822,0.348854 -1.523994,0.353338 -2.005712,-0.251125 -0.498053,-0.624949 -0.41838,-1.525342 0.187382,-2.031575 0.827699,-0.691761 1.630057,-1.415987 2.490843,-2.066144 0.417644,-0.315438 0.830307,-0.401909 1.207481,-0.329347 a 1.8863898,1.8863898 0 0 0 -0.309482,2.260997 c 0.534968,0.932826 1.287606,1.467845 2.343133,1.669441 l 0.0652,0.0107 c 0.998134,0.148732 1.901994,-0.110446 2.697791,-0.7569 0.721419,-0.585936 1.474027,-1.137567 2.149683,-1.775842 0.4267902,-0.403126 0.8304732,-0.83627 1.1038832,-1.314124 0.487604,-0.852404 0.703802,-1.565701 0.39222,-2.581767 z"
     id="path2"
     style="stroke-width:0.0421598" />
</svg>
